<?xml version="1.0" standalone="no"?>
<!DOCTYPE svg PUBLIC "-//W3C//DTD SVG 20010904//EN"
 "http://www.w3.org/TR/2001/REC-SVG-20010904/DTD/svg10.dtd">
<svg version="1.0" xmlns="http://www.w3.org/2000/svg"
 width="2120.000000pt" height="1192.000000pt" viewBox="0 0 2120.000000 1192.000000"
 preserveAspectRatio="xMidYMid meet">

<g transform="translate(0.000000,1192.000000) scale(0.100000,-0.100000)"
fill="#000000" stroke="none">
<path d="M6840 8181 c0 -5 51 -139 114 -298 180 -454 854 -2162 1006 -2548
263 -668 393 -990 423 -1050 158 -317 387 -485 682 -502 326 -19 585 149 757
492 40 79 47 96 993 2600 158 418 333 882 390 1030 56 149 101 273 98 278 -2
4 -258 7 -567 7 -439 0 -566 -3 -574 -12 -10 -13 -206 -525 -767 -1998 -158
-415 -291 -758 -295 -763 -3 -4 -57 120 -118 275 -61 156 -242 616 -402 1023
-160 407 -356 905 -436 1108 l-146 367 -579 0 c-344 0 -579 -4 -579 -9z"/>
<path d="M3002 6018 l3 -2163 1095 0 c1174 0 1184 0 1405 52 368 86 672 259
956 545 423 424 639 952 639 1558 0 549 -172 1031 -513 1435 -293 348 -646
577 -1041 675 -242 60 -251 60 -1452 60 l-1094 0 2 -2162z m2122 1072 c184
-18 322 -71 462 -176 191 -144 337 -363 401 -601 25 -90 27 -114 27 -298 0
-184 -2 -208 -27 -297 -85 -317 -315 -592 -591 -707 -160 -66 -154 -66 -761
-66 l-550 0 -3 1065 c-1 586 0 1071 3 1078 6 15 883 17 1039 2z"/>
<path d="M15150 8171 c0 -4 85 -253 189 -552 104 -299 287 -825 406 -1169 119
-344 277 -800 352 -1015 171 -494 196 -562 246 -660 208 -416 623 -766 1039
-875 151 -40 329 -52 708 -48 l305 3 3 537 2 537 -393 3 -393 3 -76 38 c-122
60 -213 180 -282 373 -45 125 -376 1093 -376 1098 0 3 171 6 380 6 l380 0 5
23 c3 12 4 256 3 542 l-3 520 -572 3 -571 2 -30 83 c-16 45 -67 189 -113 320
l-84 237 -562 0 c-312 0 -563 -4 -563 -9z"/>
<path d="M13916 8139 c-571 -51 -1154 -497 -1375 -1052 -22 -56 -182 -481
-355 -945 -173 -464 -329 -869 -348 -900 -51 -86 -210 -241 -287 -280 l-64
-32 -369 0 -368 0 2 -537 3 -538 300 -3 c482 -5 663 17 869 102 302 126 596
370 791 656 85 125 160 289 280 615 407 1107 531 1438 557 1494 22 46 54 88
112 146 98 97 171 148 260 181 67 24 68 24 471 24 l405 0 0 540 0 540 -392 -1
c-216 -1 -438 -6 -492 -10z"/>
</g>
</svg>
