<?xml version="1.0" standalone="no"?>
<!DOCTYPE svg PUBLIC "-//W3C//DTD SVG 20010904//EN"
 "http://www.w3.org/TR/2001/REC-SVG-20010904/DTD/svg10.dtd">
<svg version="1.0" xmlns="http://www.w3.org/2000/svg"
 width="1280.000000pt" height="1280.000000pt" viewBox="0 0 1280.000000 1280.000000"
 preserveAspectRatio="xMidYMid meet">

<g transform="translate(0.000000,1280.000000) scale(0.100000,-0.100000)"
fill="#000000" stroke="none">
<path d="M0 6400 l0 -6400 6400 0 6400 0 0 6400 0 6400 -6400 0 -6400 0 0
-6400z m3080 1980 c317 -26 582 -158 799 -398 122 -135 206 -269 261 -419 61
-169 81 -286 81 -483 1 -377 -125 -683 -387 -942 -180 -178 -357 -276 -593
-330 -93 -21 -120 -22 -793 -25 l-698 -4 0 1305 0 1306 608 0 c334 0 659 -5
722 -10z m2018 -827 c180 -458 329 -833 332 -833 3 0 147 372 320 826 173 454
317 829 320 835 4 6 139 8 351 7 l345 -3 -432 -1140 c-238 -627 -451 -1176
-473 -1221 -58 -114 -134 -194 -228 -241 -67 -33 -85 -38 -169 -41 -201 -9
-340 76 -452 278 -25 45 -942 2347 -942 2365 0 3 158 4 351 3 l351 -3 326
-832z m4732 642 l67 -190 347 -3 346 -2 0 -330 0 -330 -230 0 c-126 0 -230 -2
-230 -5 0 -16 237 -689 257 -730 36 -74 68 -111 121 -142 l47 -28 245 -5 245
-5 3 -323 2 -324 -277 5 c-313 5 -335 9 -488 81 -200 95 -384 275 -480 468
-39 79 -725 2038 -718 2051 2 4 155 6 340 5 l336 -3 67 -190z m-960 -154 l0
-319 -252 -4 -253 -3 -54 -29 c-70 -36 -165 -126 -190 -180 -11 -22 -107 -278
-215 -567 -107 -289 -209 -555 -226 -590 -127 -251 -376 -465 -632 -540 -65
-19 -104 -22 -345 -26 l-273 -5 0 326 0 326 221 0 c185 0 227 3 256 17 49 23
135 104 171 161 17 26 121 290 232 586 110 297 217 573 238 613 109 219 342
421 582 505 113 40 176 46 463 47 l277 1 0 -319z"/>
<path d="M2400 7086 l0 -646 344 0 c391 0 417 4 535 80 193 125 294 319 292
564 0 127 -16 198 -65 301 -69 143 -208 271 -344 317 -63 21 -87 23 -414 26
l-348 3 0 -645z"/>
</g>
</svg>
