<svg enable-background="new 0 0 32 32" height="512" viewBox="0 0 32 32" width="512" xmlns="http://www.w3.org/2000/svg"><path d="m26 32h-20c-3.314 0-6-2.686-6-6v-20c0-3.314 2.686-6 6-6h20c3.314 0 6 2.686 6 6v20c0 3.314-2.686 6-6 6z" fill="#e3f8fa"/><path d="m26 32h-20c-3.314 0-6-2.686-6-6v-20c0-3.314 2.686-6 6-6h20c3.314 0 6 2.686 6 6v20c0 3.314-2.686 6-6 6z" fill="#e3f8fa"/><path d="m22.375 11.833h-.333v3.167c0 1.563-1.271 2.833-2.833 2.833h-7.833v1.5c0 1.011.822 1.833 1.833 1.833h.833v1.5c0 .206.126.391.319.466.059.023.12.034.181.034.137 0 .272-.057.368-.162l1.685-1.838h5.78c1.011 0 1.833-.822 1.833-1.833v-5.667c0-1.01-.822-1.833-1.833-1.833z" fill="#8ce1eb"/><path d="m19.208 7.833h-9.666c-.827 0-1.5.673-1.5 1.5v5.667c0 .827.673 1.5 1.5 1.5h9.667c.827 0 1.5-.673 1.5-1.5v-5.667c-.001-.827-.674-1.5-1.501-1.5zm.167 2.96-4.493 2.18c-.16.08-.333.12-.507.12s-.347-.04-.507-.12l-4.493-2.18v-1.106l4.927 2.387c.047.027.1.027.147 0l4.927-2.387v1.106z" fill="#26c6da"/></svg>