<svg id="Bold" enable-background="new 0 0 32 32" height="512" viewBox="0 0 32 32" width="512" xmlns="http://www.w3.org/2000/svg"><path d="m26 32h-20c-3.314 0-6-2.686-6-6v-20c0-3.314 2.686-6 6-6h20c3.314 0 6 2.686 6 6v20c0 3.314-2.686 6-6 6z" fill="#fff9dd"/><path d="m14.278 18.121-.264 3.723c.379 0 .542-.163.739-.358l1.775-1.697 3.679 2.694c.674.376 1.15.178 1.332-.621l2.415-11.314.001-.001c.214-.997-.36-1.387-1.018-1.142l-14.194 5.433c-.968.376-.954.916-.165 1.161l3.628 1.129 8.429-5.274c.397-.263.757-.117.461.145z" fill="#ffd200"/></svg>